<svg xmlns="http://www.w3.org/2000/svg" viewBox="0 0 64 64">
  <defs>
    <linearGradient id="shield" x1="10" y1="5" x2="54" y2="60" gradientUnits="userSpaceOnUse">
      <stop stop-color="#0B2F5B"/>
      <stop offset="1" stop-color="#1769AA"/>
    </linearGradient>
  </defs>
  <path fill="url(#shield)" d="M32 2.5 58 11v19.4c0 15.5-9.8 26.1-26 32.1C15.8 56.5 6 45.9 6 30.4V11l26-8.5Z"/>
  <path fill="none" stroke="#FFF" stroke-opacity=".3" stroke-width="2" d="m32 7.4 21 6.9v16c0 12.6-7.4 21.6-21 27-13.6-5.4-21-14.4-21-27v-16l21-6.9Z"/>
  <path fill="#DFF2FF" d="m31 17 13 6.5L31 30l-13-6.5L31 17Z"/>
  <path fill="#75C8EF" d="m18 23.5 13 6.5v15l-13-6.5v-15Z"/>
  <path fill="#FFF" d="m31 30 13-6.5v15L31 45V30Z"/>
  <path fill="#1769AA" fill-opacity=".48" d="m25.4 19.8 13 6.5 2.8-1.4-13-6.5-2.8 1.4Z"/>
  <circle cx="46" cy="44" r="10.5" fill="#FFF"/>
  <circle cx="46" cy="44" r="8.2" fill="#1F8A4C"/>
  <path fill="none" stroke="#FFF" stroke-linecap="round" stroke-linejoin="round" stroke-width="3.2" d="m41.7 43.9 2.7 2.8 5.8-6"/>
</svg>
